<?xml version="1.0" encoding="UTF-8"?>
<svg width="1180" height="720" viewBox="0 0 1180 720"
     xmlns="http://www.w3.org/2000/svg"
     font-family="'Segoe UI', Helvetica, Arial, sans-serif">

  <defs>
    <marker id="ab" markerWidth="8" markerHeight="6" refX="7" refY="3" orient="auto"><polygon points="0 0,8 3,0 6" fill="#3b82f6"/></marker>
    <marker id="ac" markerWidth="8" markerHeight="6" refX="7" refY="3" orient="auto"><polygon points="0 0,8 3,0 6" fill="#06b6d4"/></marker>
    <marker id="ao" markerWidth="8" markerHeight="6" refX="7" refY="3" orient="auto"><polygon points="0 0,8 3,0 6" fill="#f97316"/></marker>
    <marker id="aa" markerWidth="8" markerHeight="6" refX="7" refY="3" orient="auto"><polygon points="0 0,8 3,0 6" fill="#f59e0b"/></marker>
    <marker id="ag" markerWidth="8" markerHeight="6" refX="7" refY="3" orient="auto"><polygon points="0 0,8 3,0 6" fill="#22c55e"/></marker>
    <marker id="ap" markerWidth="8" markerHeight="6" refX="7" refY="3" orient="auto"><polygon points="0 0,8 3,0 6" fill="#a855f7"/></marker>
    <marker id="av" markerWidth="8" markerHeight="6" refX="7" refY="3" orient="auto"><polygon points="0 0,8 3,0 6" fill="#8b5cf6"/></marker>
    <filter id="glow" x="-20%" y="-20%" width="140%" height="140%">
      <feGaussianBlur stdDeviation="3" result="blur"/>
      <feMerge><feMergeNode in="blur"/><feMergeNode in="SourceGraphic"/></feMerge>
    </filter>
  </defs>

  <!-- ── Background ──────────────────────────────────────────────── -->
  <rect width="1180" height="720" fill="#09090f"/>
  <rect x="10" y="10" width="1160" height="700" rx="12" fill="none" stroke="#1e293b" stroke-width="1"/>

  <!-- ── Title ──────────────────────────────────────────────────── -->
  <text x="590" y="46" text-anchor="middle" fill="#f1f5f9" font-size="22" font-weight="700" letter-spacing="0.5">Arquitetura — usuario-api</text>
  <text x="590" y="67" text-anchor="middle" fill="#475569" font-size="13">Spring Boot 3.5 · Java 26 · JWT · Spring Security · PostgreSQL · ViaCEP</text>
  <line x1="40" y1="78" x2="1140" y2="78" stroke="#1e293b" stroke-width="1"/>

  <!-- ══════════════════════════════════════════════════════════════ -->
  <!-- BFF CLIENT  (blue)  28 · 205 · 130 · 115                     -->
  <!-- ══════════════════════════════════════════════════════════════ -->
  <rect x="28" y="205" width="130" height="115" rx="7" fill="#0f172a" stroke="#3b82f6" stroke-width="2"/>
  <rect x="28" y="205" width="130" height="26" rx="7" fill="#1d4ed8"/>
  <rect x="28" y="219" width="130" height="12" fill="#1d4ed8"/>
  <text x="93" y="225" text-anchor="middle" fill="#fff" font-size="11" font-weight="700">BFF Agendador</text>
  <text x="93" y="248" text-anchor="middle" fill="#93c5fd" font-size="10">Feign Client</text>
  <text x="93" y="263" text-anchor="middle" fill="#93c5fd" font-size="10">HTTP / JSON</text>
  <text x="93" y="278" text-anchor="middle" fill="#bfdbfe" font-size="9">Angular → BFF → API</text>
  <text x="93" y="312" text-anchor="middle" fill="#7dd3fc" font-size="9" font-style="italic">:8080 (consumer)</text>

  <!-- request / response -->
  <line x1="158" y1="236" x2="185" y2="236" stroke="#3b82f6" stroke-width="1.5" marker-end="url(#ab)"/>
  <text x="171" y="230" text-anchor="middle" fill="#93c5fd" font-size="9">request</text>
  <line x1="185" y1="268" x2="158" y2="268" stroke="#3b82f6" stroke-width="1.5" marker-end="url(#ab)"/>
  <text x="171" y="281" text-anchor="middle" fill="#93c5fd" font-size="9">response</text>

  <!-- ══════════════════════════════════════════════════════════════ -->
  <!-- SPRING SECURITY  (teal)  185 · 170 · 152 · 195               -->
  <!-- ══════════════════════════════════════════════════════════════ -->
  <rect x="185" y="170" width="152" height="195" rx="7" fill="#062030" stroke="#06b6d4" stroke-width="2"/>
  <rect x="185" y="170" width="152" height="26" rx="7" fill="#0e7490"/>
  <rect x="185" y="184" width="152" height="12" fill="#0e7490"/>
  <text x="261" y="190" text-anchor="middle" fill="#fff" font-size="11" font-weight="700">Spring Security</text>
  <text x="261" y="214" text-anchor="middle" fill="#22d3ee" font-size="10" font-weight="600">JwtRequestFilter</text>
  <text x="261" y="229" text-anchor="middle" fill="#a5f3fc" font-size="9">OncePerRequestFilter</text>
  <text x="261" y="244" text-anchor="middle" fill="#7dd3fc" font-size="9">validateToken()</text>
  <text x="261" y="258" text-anchor="middle" fill="#7dd3fc" font-size="9">extractEmail()</text>
  <line x1="198" y1="266" x2="324" y2="266" stroke="#164e63" stroke-width="1"/>
  <text x="261" y="281" text-anchor="middle" fill="#22d3ee" font-size="10" font-weight="600">JwtUtil</text>
  <text x="261" y="296" text-anchor="middle" fill="#a5f3fc" font-size="9">generateToken(email)</text>
  <text x="261" y="310" text-anchor="middle" fill="#a5f3fc" font-size="9">HMAC-SHA · 1h exp</text>
  <line x1="198" y1="318" x2="324" y2="318" stroke="#164e63" stroke-width="1"/>
  <text x="261" y="333" text-anchor="middle" fill="#67e8f9" font-size="9" font-style="italic">SecurityConfig · STATELESS</text>
  <text x="261" y="357" text-anchor="middle" fill="#0e7490" font-size="9">UserDetailsServiceImpl</text>

  <!-- Security → Controller -->
  <line x1="337" y1="252" x2="370" y2="252" stroke="#06b6d4" stroke-width="1.5" marker-end="url(#ac)"/>

  <!-- ══════════════════════════════════════════════════════════════ -->
  <!-- CONTROLLER  (orange)  370 · 123 · 193 · 270                  -->
  <!-- ══════════════════════════════════════════════════════════════ -->
  <rect x="370" y="123" width="193" height="270" rx="7" fill="#1c0a00" stroke="#f97316" stroke-width="2"/>
  <rect x="370" y="123" width="193" height="26" rx="7" fill="#c2410c"/>
  <rect x="370" y="137" width="193" height="12" fill="#c2410c"/>
  <text x="466" y="143" text-anchor="middle" fill="#fff" font-size="12" font-weight="700">UsuarioController</text>
  <text x="466" y="165" text-anchor="middle" fill="#fb923c" font-size="10">@RestController</text>
  <line x1="384" y1="173" x2="549" y2="173" stroke="#431407" stroke-width="1"/>
  <text x="466" y="188" text-anchor="middle" fill="#fed7aa" font-size="9">POST  /usuario</text>
  <text x="466" y="202" text-anchor="middle" fill="#fed7aa" font-size="9">POST  /usuario/login</text>
  <text x="466" y="216" text-anchor="middle" fill="#fed7aa" font-size="9">GET   /usuario?email=</text>
  <text x="466" y="230" text-anchor="middle" fill="#fed7aa" font-size="9">PUT   /usuario</text>
  <text x="466" y="244" text-anchor="middle" fill="#fed7aa" font-size="9">DELETE /usuario/{email}</text>
  <line x1="384" y1="251" x2="549" y2="251" stroke="#431407" stroke-width="1"/>
  <text x="466" y="265" text-anchor="middle" fill="#fde68a" font-size="9">POST  /usuario/endereco</text>
  <text x="466" y="279" text-anchor="middle" fill="#fde68a" font-size="9">PUT   /usuario/endereco?id=</text>
  <text x="466" y="293" text-anchor="middle" fill="#fde68a" font-size="9">GET   /usuario/endereco/{cep}</text>
  <line x1="384" y1="300" x2="549" y2="300" stroke="#431407" stroke-width="1"/>
  <text x="466" y="314" text-anchor="middle" fill="#fed7aa" font-size="9">POST  /usuario/telefone</text>
  <text x="466" y="328" text-anchor="middle" fill="#fed7aa" font-size="9">PUT   /usuario/telefone?id=</text>
  <line x1="384" y1="335" x2="549" y2="335" stroke="#431407" stroke-width="1"/>
  <text x="466" y="350" text-anchor="middle" fill="#fb923c" font-size="9" font-style="italic">GlobalExceptionHandler</text>
  <text x="466" y="365" text-anchor="middle" fill="#7c2d12" font-size="9">@ControllerAdvice · ErrorResponseDTO</text>
  <text x="466" y="380" text-anchor="middle" fill="#7c2d12" font-size="9">404 · 409 · 401 · 400</text>

  <!-- Controller → UsuarioService -->
  <line x1="563" y1="200" x2="600" y2="200" stroke="#f97316" stroke-width="1.5" marker-end="url(#ao)"/>
  <!-- Controller → ViaCepService -->
  <line x1="563" y1="293" x2="600" y2="355" stroke="#f97316" stroke-width="1.5" marker-end="url(#ao)"/>

  <!-- ══════════════════════════════════════════════════════════════ -->
  <!-- USUARIO SERVICE  (amber)  600 · 123 · 187 · 192              -->
  <!-- ══════════════════════════════════════════════════════════════ -->
  <rect x="600" y="123" width="187" height="192" rx="7" fill="#1c1000" stroke="#f59e0b" stroke-width="2"/>
  <rect x="600" y="123" width="187" height="26" rx="7" fill="#b45309"/>
  <rect x="600" y="137" width="187" height="12" fill="#b45309"/>
  <text x="693" y="143" text-anchor="middle" fill="#fff" font-size="12" font-weight="700">UsuarioService</text>
  <text x="693" y="165" text-anchor="middle" fill="#fcd34d" font-size="10">@Service</text>
  <line x1="614" y1="173" x2="773" y2="173" stroke="#451a03" stroke-width="1"/>
  <text x="693" y="189" text-anchor="middle" fill="#fde68a" font-size="9">cadastrar() / atualizar()</text>
  <text x="693" y="203" text-anchor="middle" fill="#fde68a" font-size="9">deletar() / buscarPorEmail()</text>
  <text x="693" y="217" text-anchor="middle" fill="#fde68a" font-size="9">login() / gerarToken()</text>
  <text x="693" y="231" text-anchor="middle" fill="#fde68a" font-size="9">salvarEndereco()</text>
  <text x="693" y="245" text-anchor="middle" fill="#fde68a" font-size="9">salvarTelefone()</text>
  <line x1="614" y1="253" x2="773" y2="253" stroke="#451a03" stroke-width="1"/>
  <text x="693" y="268" text-anchor="middle" fill="#fbbf24" font-size="10" font-weight="600">UsuarioConverter</text>
  <text x="693" y="283" text-anchor="middle" fill="#fde68a" font-size="9">@Component · Entity ↔ DTO</text>
  <text x="693" y="297" text-anchor="middle" fill="#fde68a" font-size="9">BCryptPasswordEncoder</text>
  <text x="693" y="309" text-anchor="middle" fill="#92400e" font-size="9">update parcial (null-safe)</text>

  <!-- ══════════════════════════════════════════════════════════════ -->
  <!-- VIA CEP SERVICE  (amber)  600 · 328 · 187 · 100              -->
  <!-- ══════════════════════════════════════════════════════════════ -->
  <rect x="600" y="328" width="187" height="100" rx="7" fill="#1c1000" stroke="#f59e0b" stroke-width="2"/>
  <rect x="600" y="328" width="187" height="26" rx="7" fill="#b45309"/>
  <rect x="600" y="342" width="187" height="12" fill="#b45309"/>
  <text x="693" y="348" text-anchor="middle" fill="#fff" font-size="12" font-weight="700">ViaCepService</text>
  <text x="693" y="370" text-anchor="middle" fill="#fcd34d" font-size="10">@Service</text>
  <text x="693" y="387" text-anchor="middle" fill="#fde68a" font-size="9">buscarEndereco(cep)</text>
  <text x="693" y="401" text-anchor="middle" fill="#fde68a" font-size="9">validarCep() — 8 digitos</text>
  <text x="693" y="416" text-anchor="middle" fill="#fde68a" font-size="9">→ ViaCepClient (Feign)</text>

  <!-- UsuarioService → 3 Repositories (fan-out) -->
  <line x1="787" y1="183" x2="820" y2="168" stroke="#f59e0b" stroke-width="1.5" marker-end="url(#aa)"/>
  <line x1="787" y1="207" x2="820" y2="261" stroke="#f59e0b" stroke-width="1.5" marker-end="url(#aa)"/>
  <line x1="787" y1="230" x2="820" y2="353" stroke="#f59e0b" stroke-width="1.5" marker-end="url(#aa)"/>

  <!-- ViaCepService → ViaCepClient -->
  <line x1="787" y1="378" x2="820" y2="446" stroke="#f59e0b" stroke-width="1.5" marker-end="url(#aa)"/>

  <!-- ══════════════════════════════════════════════════════════════ -->
  <!-- REPOSITORIES  (green)  820 · * · 165 · *                     -->
  <!-- ══════════════════════════════════════════════════════════════ -->

  <!-- UsuarioRepository  y:128 h:80 -->
  <rect x="820" y="128" width="165" height="80" rx="7" fill="#021b0e" stroke="#22c55e" stroke-width="2"/>
  <rect x="820" y="128" width="165" height="22" rx="7" fill="#15803d"/>
  <rect x="820" y="140" width="165" height="10" fill="#15803d"/>
  <text x="902" y="146" text-anchor="middle" fill="#fff" font-size="11" font-weight="700">UsuarioRepository</text>
  <text x="902" y="165" text-anchor="middle" fill="#86efac" font-size="10">JpaRepository</text>
  <text x="902" y="179" text-anchor="middle" fill="#6ee7b7" font-size="9">&lt;UsuarioEntity, Long&gt;</text>
  <text x="902" y="199" text-anchor="middle" fill="#4ade80" font-size="9">findByEmail(String)</text>

  <!-- EnderecoRepository  y:222 h:78 -->
  <rect x="820" y="222" width="165" height="78" rx="7" fill="#021b0e" stroke="#22c55e" stroke-width="2"/>
  <rect x="820" y="222" width="165" height="22" rx="7" fill="#15803d"/>
  <rect x="820" y="234" width="165" height="10" fill="#15803d"/>
  <text x="902" y="240" text-anchor="middle" fill="#fff" font-size="11" font-weight="700">EnderecoRepository</text>
  <text x="902" y="259" text-anchor="middle" fill="#86efac" font-size="10">JpaRepository</text>
  <text x="902" y="273" text-anchor="middle" fill="#6ee7b7" font-size="9">&lt;EnderecoEntity, Long&gt;</text>
  <text x="902" y="291" text-anchor="middle" fill="#4ade80" font-size="9">findById(Long)</text>

  <!-- TelefoneRepository  y:314 h:78 -->
  <rect x="820" y="314" width="165" height="78" rx="7" fill="#021b0e" stroke="#22c55e" stroke-width="2"/>
  <rect x="820" y="314" width="165" height="22" rx="7" fill="#15803d"/>
  <rect x="820" y="326" width="165" height="10" fill="#15803d"/>
  <text x="902" y="332" text-anchor="middle" fill="#fff" font-size="11" font-weight="700">TelefoneRepository</text>
  <text x="902" y="351" text-anchor="middle" fill="#86efac" font-size="10">JpaRepository</text>
  <text x="902" y="365" text-anchor="middle" fill="#6ee7b7" font-size="9">&lt;TelefoneEntity, Long&gt;</text>
  <text x="902" y="383" text-anchor="middle" fill="#4ade80" font-size="9">findById(Long)</text>

  <!-- ViaCepClient  (teal)  y:406 h:82 -->
  <rect x="820" y="406" width="165" height="82" rx="7" fill="#062030" stroke="#22d3ee" stroke-width="2"/>
  <rect x="820" y="406" width="165" height="22" rx="7" fill="#0891b2"/>
  <rect x="820" y="418" width="165" height="10" fill="#0891b2"/>
  <text x="902" y="424" text-anchor="middle" fill="#fff" font-size="11" font-weight="700">ViaCepClient</text>
  <text x="902" y="444" text-anchor="middle" fill="#67e8f9" font-size="10">@FeignClient</text>
  <text x="902" y="459" text-anchor="middle" fill="#a5f3fc" font-size="9">buscarEndereco(cep)</text>
  <text x="902" y="474" text-anchor="middle" fill="#a5f3fc" font-size="9">GET /ws/{cep}/json/</text>
  <text x="902" y="482" text-anchor="middle" fill="#164e63" font-size="8">url: ${viacep.url}</text>

  <!-- Dep. Injection (dashed) Repo → Entity -->
  <line x1="985" y1="168" x2="1010" y2="162" stroke="#22c55e" stroke-width="1" stroke-dasharray="4,3" marker-end="url(#ag)"/>
  <line x1="985" y1="261" x2="1010" y2="255" stroke="#22c55e" stroke-width="1" stroke-dasharray="4,3" marker-end="url(#ag)"/>
  <line x1="985" y1="353" x2="1010" y2="348" stroke="#22c55e" stroke-width="1" stroke-dasharray="4,3" marker-end="url(#ag)"/>
  <text x="1000" y="308" text-anchor="middle" fill="#166534" font-size="8" transform="rotate(-88,1000,308)">JPA / Hibernate</text>

  <!-- ══════════════════════════════════════════════════════════════ -->
  <!-- ENTITIES  (rose)  1010 · * · 155 · *                         -->
  <!-- ══════════════════════════════════════════════════════════════ -->

  <!-- UsuarioEntity  y:118 h:102 -->
  <rect x="1010" y="118" width="155" height="102" rx="7" fill="#1f0510" stroke="#f43f5e" stroke-width="2"/>
  <rect x="1010" y="118" width="155" height="22" rx="7" fill="#be123c"/>
  <rect x="1010" y="130" width="155" height="10" fill="#be123c"/>
  <text x="1087" y="136" text-anchor="middle" fill="#fff" font-size="11" font-weight="700">UsuarioEntity</text>
  <text x="1087" y="155" text-anchor="middle" fill="#fda4af" font-size="9">@Entity  @Table(usuario)</text>
  <text x="1087" y="169" text-anchor="middle" fill="#fecdd3" font-size="9">id · nome · email · senha</text>
  <text x="1087" y="183" text-anchor="middle" fill="#fecdd3" font-size="9">@OneToMany enderecos</text>
  <text x="1087" y="197" text-anchor="middle" fill="#fecdd3" font-size="9">@OneToMany telefones</text>
  <text x="1087" y="211" text-anchor="middle" fill="#9f1239" font-size="8" font-style="italic">implements UserDetails</text>

  <!-- EnderecoEntity  y:234 h:92 -->
  <rect x="1010" y="234" width="155" height="92" rx="7" fill="#1f0510" stroke="#f43f5e" stroke-width="2"/>
  <rect x="1010" y="234" width="155" height="22" rx="7" fill="#be123c"/>
  <rect x="1010" y="246" width="155" height="10" fill="#be123c"/>
  <text x="1087" y="252" text-anchor="middle" fill="#fff" font-size="11" font-weight="700">EnderecoEntity</text>
  <text x="1087" y="271" text-anchor="middle" fill="#fda4af" font-size="9">@Entity  @Table(endereco)</text>
  <text x="1087" y="285" text-anchor="middle" fill="#fecdd3" font-size="9">id · rua · numero</text>
  <text x="1087" y="299" text-anchor="middle" fill="#fecdd3" font-size="9">cidade · estado · cep</text>
  <text x="1087" y="317" text-anchor="middle" fill="#fecdd3" font-size="9">@ManyToOne usuario_id</text>

  <!-- TelefoneEntity  y:340 h:80 -->
  <rect x="1010" y="340" width="155" height="80" rx="7" fill="#1f0510" stroke="#f43f5e" stroke-width="2"/>
  <rect x="1010" y="340" width="155" height="22" rx="7" fill="#be123c"/>
  <rect x="1010" y="352" width="155" height="10" fill="#be123c"/>
  <text x="1087" y="358" text-anchor="middle" fill="#fff" font-size="11" font-weight="700">TelefoneEntity</text>
  <text x="1087" y="377" text-anchor="middle" fill="#fda4af" font-size="9">@Entity  @Table(telefone)</text>
  <text x="1087" y="391" text-anchor="middle" fill="#fecdd3" font-size="9">id · numero · ddd</text>
  <text x="1087" y="405" text-anchor="middle" fill="#fecdd3" font-size="9">@ManyToOne usuario_id</text>

  <!-- ══════════════════════════════════════════════════════════════ -->
  <!-- DATABASES bottom row                                          -->
  <!-- ══════════════════════════════════════════════════════════════ -->

  <!-- Repos → PostgreSQL (via vertical then horizontal path) -->
  <polyline points="902,393 902,538 400,538 400,553"
            fill="none" stroke="#a855f7" stroke-width="1.5" marker-end="url(#ap)"/>
  <text x="700" y="532" text-anchor="middle" fill="#7e22ce" font-size="9">JPA / Hibernate</text>

  <!-- ViaCepClient → ViaCEP API -->
  <polyline points="902,489 902,519 822,519 822,553"
            fill="none" stroke="#8b5cf6" stroke-width="1.5" stroke-dasharray="5,3" marker-end="url(#av)"/>

  <!-- PostgreSQL  (purple)  280 · 553 · 240 · 74 -->
  <rect x="280" y="553" width="240" height="74" rx="7" fill="#120a2e" stroke="#a855f7" stroke-width="2"/>
  <rect x="280" y="553" width="240" height="24" rx="7" fill="#7e22ce"/>
  <rect x="280" y="565" width="240" height="12" fill="#7e22ce"/>
  <text x="400" y="571" text-anchor="middle" fill="#fff" font-size="13" font-weight="700">PostgreSQL</text>
  <text x="400" y="592" text-anchor="middle" fill="#d8b4fe" font-size="10">jdbc:postgresql://localhost:5432</text>
  <text x="400" y="607" text-anchor="middle" fill="#c4b5fd" font-size="9">db_usuario  ·  DDL: update</text>
  <text x="400" y="619" text-anchor="middle" fill="#7e22ce" font-size="9">show-sql=true  ·  PostgreSQLDialect</text>

  <!-- ViaCEP API external  (violet dashed)  730 · 553 · 185 · 74 -->
  <rect x="730" y="553" width="185" height="74" rx="7" fill="#150b33" stroke="#8b5cf6" stroke-width="2" stroke-dasharray="7,4"/>
  <rect x="730" y="553" width="185" height="24" rx="7" fill="#5b21b6"/>
  <rect x="730" y="565" width="185" height="12" fill="#5b21b6"/>
  <text x="822" y="571" text-anchor="middle" fill="#fff" font-size="12" font-weight="700">ViaCEP API</text>
  <text x="822" y="591" text-anchor="middle" fill="#c4b5fd" font-size="9">viacep.com.br  (externo)</text>
  <text x="822" y="605" text-anchor="middle" fill="#ddd6fe" font-size="9">GET /ws/{cep}/json/</text>
  <text x="822" y="619" text-anchor="middle" fill="#5b21b6" font-size="9" font-style="italic">REST publico · sem autenticacao</text>

  <!-- ══════════════════════════════════════════════════════════════ -->
  <!-- LEGEND  28 · 558 · 232 · 148                                 -->
  <!-- ══════════════════════════════════════════════════════════════ -->
  <rect x="28" y="558" width="232" height="150" rx="7" fill="#0d1117" stroke="#1e293b" stroke-width="1.5"/>
  <text x="144" y="578" text-anchor="middle" fill="#94a3b8" font-size="11" font-weight="700">Legenda</text>
  <line x1="42" y1="584" x2="246" y2="584" stroke="#1e293b" stroke-width="1"/>

  <rect x="42" y="592" width="13" height="13" rx="2" fill="#c2410c"/>
  <text x="62" y="603" fill="#e2e8f0" font-size="10">Controller — recebe requisicoes HTTP</text>

  <rect x="42" y="612" width="13" height="13" rx="2" fill="#b45309"/>
  <text x="62" y="623" fill="#e2e8f0" font-size="10">Service — logica de negocio</text>

  <rect x="42" y="632" width="13" height="13" rx="2" fill="#15803d"/>
  <text x="62" y="643" fill="#e2e8f0" font-size="10">Repository — Spring Data JPA</text>

  <rect x="42" y="652" width="13" height="13" rx="2" fill="#be123c"/>
  <text x="62" y="663" fill="#e2e8f0" font-size="10">Entity — modelo mapeado Hibernate</text>

  <rect x="42" y="672" width="13" height="13" rx="2" fill="#7e22ce"/>
  <text x="62" y="683" fill="#e2e8f0" font-size="10">Database — PostgreSQL</text>

  <rect x="42" y="692" width="13" height="13" rx="2" fill="#0e7490"/>
  <text x="62" y="703" fill="#e2e8f0" font-size="10">Security — JWT · Spring Security</text>

</svg>
